<mxfile host="app.diagrams.net" modified="2024-05-04T12:22:46.593Z" agent="Mozilla/5.0 (Windows NT 10.0; Win64; x64) AppleWebKit/537.36 (KHTML, like Gecko) Chrome/124.0.0.0 Safari/537.36" etag="tP2kjoF5g8pLRw8MYYAp" version="24.3.1" type="device">
  <diagram name="Page-1" id="jpewRsYoc6-oFfCXzuQN">
    <mxGraphModel dx="1257" dy="674" grid="1" gridSize="10" guides="1" tooltips="1" connect="1" arrows="1" fold="1" page="1" pageScale="1" pageWidth="850" pageHeight="1100" math="0" shadow="0">
      <root>
        <mxCell id="0" />
        <mxCell id="1" parent="0" />
        <mxCell id="vUHx7iwd-KiUEEzuEU4B-29" style="edgeStyle=orthogonalEdgeStyle;rounded=0;orthogonalLoop=1;jettySize=auto;html=1;exitX=1;exitY=0.5;exitDx=0;exitDy=0;" edge="1" parent="1" source="vUHx7iwd-KiUEEzuEU4B-1">
          <mxGeometry relative="1" as="geometry">
            <mxPoint x="725" y="630" as="targetPoint" />
          </mxGeometry>
        </mxCell>
        <mxCell id="vUHx7iwd-KiUEEzuEU4B-1" value="&lt;font style=&quot;font-size: 20px;&quot;&gt;Navigation&lt;/font&gt;" style="rounded=1;whiteSpace=wrap;html=1;" vertex="1" parent="1">
          <mxGeometry x="375" y="280" width="120" height="60" as="geometry" />
        </mxCell>
        <mxCell id="vUHx7iwd-KiUEEzuEU4B-16" style="edgeStyle=orthogonalEdgeStyle;rounded=0;orthogonalLoop=1;jettySize=auto;html=1;exitX=0.75;exitY=0;exitDx=0;exitDy=0;entryX=0.5;entryY=1;entryDx=0;entryDy=0;" edge="1" parent="1" source="vUHx7iwd-KiUEEzuEU4B-7" target="vUHx7iwd-KiUEEzuEU4B-1">
          <mxGeometry relative="1" as="geometry" />
        </mxCell>
        <mxCell id="vUHx7iwd-KiUEEzuEU4B-7" value="&lt;font style=&quot;font-size: 20px;&quot;&gt;submenu&lt;/font&gt;" style="swimlane;fontStyle=0;childLayout=stackLayout;horizontal=1;startSize=30;horizontalStack=0;resizeParent=1;resizeParentMax=0;resizeLast=0;collapsible=1;marginBottom=0;whiteSpace=wrap;html=1;" vertex="1" parent="1">
          <mxGeometry x="235" y="380" width="180" height="120" as="geometry" />
        </mxCell>
        <mxCell id="vUHx7iwd-KiUEEzuEU4B-8" value="&lt;font style=&quot;font-size: 20px;&quot;&gt;id: string&lt;/font&gt;" style="text;strokeColor=none;fillColor=none;align=left;verticalAlign=middle;spacingLeft=4;spacingRight=4;overflow=hidden;points=[[0,0.5],[1,0.5]];portConstraint=eastwest;rotatable=0;whiteSpace=wrap;html=1;" vertex="1" parent="vUHx7iwd-KiUEEzuEU4B-7">
          <mxGeometry y="30" width="180" height="30" as="geometry" />
        </mxCell>
        <mxCell id="vUHx7iwd-KiUEEzuEU4B-9" value="&lt;font style=&quot;font-size: 20px;&quot;&gt;name: string&lt;/font&gt;" style="text;strokeColor=none;fillColor=none;align=left;verticalAlign=middle;spacingLeft=4;spacingRight=4;overflow=hidden;points=[[0,0.5],[1,0.5]];portConstraint=eastwest;rotatable=0;whiteSpace=wrap;html=1;" vertex="1" parent="vUHx7iwd-KiUEEzuEU4B-7">
          <mxGeometry y="60" width="180" height="30" as="geometry" />
        </mxCell>
        <mxCell id="vUHx7iwd-KiUEEzuEU4B-10" value="&lt;font style=&quot;font-size: 20px;&quot;&gt;url: string&lt;/font&gt;" style="text;strokeColor=none;fillColor=none;align=left;verticalAlign=middle;spacingLeft=4;spacingRight=4;overflow=hidden;points=[[0,0.5],[1,0.5]];portConstraint=eastwest;rotatable=0;whiteSpace=wrap;html=1;" vertex="1" parent="vUHx7iwd-KiUEEzuEU4B-7">
          <mxGeometry y="90" width="180" height="30" as="geometry" />
        </mxCell>
        <mxCell id="vUHx7iwd-KiUEEzuEU4B-11" value="&lt;font style=&quot;font-size: 20px;&quot;&gt;social menu&lt;/font&gt;" style="swimlane;fontStyle=0;childLayout=stackLayout;horizontal=1;startSize=30;horizontalStack=0;resizeParent=1;resizeParentMax=0;resizeLast=0;collapsible=1;marginBottom=0;whiteSpace=wrap;html=1;" vertex="1" parent="1">
          <mxGeometry x="455" y="380" width="180" height="150" as="geometry" />
        </mxCell>
        <mxCell id="vUHx7iwd-KiUEEzuEU4B-12" value="&lt;font style=&quot;font-size: 20px;&quot;&gt;id: string&lt;/font&gt;" style="text;strokeColor=none;fillColor=none;align=left;verticalAlign=middle;spacingLeft=4;spacingRight=4;overflow=hidden;points=[[0,0.5],[1,0.5]];portConstraint=eastwest;rotatable=0;whiteSpace=wrap;html=1;" vertex="1" parent="vUHx7iwd-KiUEEzuEU4B-11">
          <mxGeometry y="30" width="180" height="30" as="geometry" />
        </mxCell>
        <mxCell id="vUHx7iwd-KiUEEzuEU4B-13" value="&lt;font style=&quot;font-size: 20px;&quot;&gt;name: string&lt;/font&gt;" style="text;strokeColor=none;fillColor=none;align=left;verticalAlign=middle;spacingLeft=4;spacingRight=4;overflow=hidden;points=[[0,0.5],[1,0.5]];portConstraint=eastwest;rotatable=0;whiteSpace=wrap;html=1;" vertex="1" parent="vUHx7iwd-KiUEEzuEU4B-11">
          <mxGeometry y="60" width="180" height="30" as="geometry" />
        </mxCell>
        <mxCell id="vUHx7iwd-KiUEEzuEU4B-14" value="&lt;font style=&quot;font-size: 20px;&quot;&gt;url: string&lt;/font&gt;" style="text;strokeColor=none;fillColor=none;align=left;verticalAlign=middle;spacingLeft=4;spacingRight=4;overflow=hidden;points=[[0,0.5],[1,0.5]];portConstraint=eastwest;rotatable=0;whiteSpace=wrap;html=1;" vertex="1" parent="vUHx7iwd-KiUEEzuEU4B-11">
          <mxGeometry y="90" width="180" height="30" as="geometry" />
        </mxCell>
        <mxCell id="vUHx7iwd-KiUEEzuEU4B-18" value="&lt;font style=&quot;font-size: 20px;&quot;&gt;icon: string&lt;/font&gt;" style="text;strokeColor=none;fillColor=none;align=left;verticalAlign=middle;spacingLeft=4;spacingRight=4;overflow=hidden;points=[[0,0.5],[1,0.5]];portConstraint=eastwest;rotatable=0;whiteSpace=wrap;html=1;" vertex="1" parent="vUHx7iwd-KiUEEzuEU4B-11">
          <mxGeometry y="120" width="180" height="30" as="geometry" />
        </mxCell>
        <mxCell id="vUHx7iwd-KiUEEzuEU4B-15" style="edgeStyle=orthogonalEdgeStyle;rounded=0;orthogonalLoop=1;jettySize=auto;html=1;exitX=0.25;exitY=0;exitDx=0;exitDy=0;entryX=0.667;entryY=1;entryDx=0;entryDy=0;entryPerimeter=0;" edge="1" parent="1" source="vUHx7iwd-KiUEEzuEU4B-11" target="vUHx7iwd-KiUEEzuEU4B-1">
          <mxGeometry relative="1" as="geometry" />
        </mxCell>
        <mxCell id="vUHx7iwd-KiUEEzuEU4B-28" style="edgeStyle=orthogonalEdgeStyle;rounded=0;orthogonalLoop=1;jettySize=auto;html=1;exitX=0.5;exitY=0;exitDx=0;exitDy=0;entryX=0;entryY=0.25;entryDx=0;entryDy=0;" edge="1" parent="1" source="vUHx7iwd-KiUEEzuEU4B-23" target="vUHx7iwd-KiUEEzuEU4B-1">
          <mxGeometry relative="1" as="geometry" />
        </mxCell>
        <mxCell id="vUHx7iwd-KiUEEzuEU4B-23" value="&lt;font style=&quot;font-size: 20px;&quot;&gt;Navigation Menu&lt;/font&gt;" style="swimlane;fontStyle=0;childLayout=stackLayout;horizontal=1;startSize=30;horizontalStack=0;resizeParent=1;resizeParentMax=0;resizeLast=0;collapsible=1;marginBottom=0;whiteSpace=wrap;html=1;" vertex="1" parent="1">
          <mxGeometry x="35" y="380" width="180" height="150" as="geometry" />
        </mxCell>
        <mxCell id="vUHx7iwd-KiUEEzuEU4B-24" value="&lt;font style=&quot;font-size: 20px;&quot;&gt;id: string&lt;/font&gt;" style="text;strokeColor=none;fillColor=none;align=left;verticalAlign=middle;spacingLeft=4;spacingRight=4;overflow=hidden;points=[[0,0.5],[1,0.5]];portConstraint=eastwest;rotatable=0;whiteSpace=wrap;html=1;" vertex="1" parent="vUHx7iwd-KiUEEzuEU4B-23">
          <mxGeometry y="30" width="180" height="30" as="geometry" />
        </mxCell>
        <mxCell id="vUHx7iwd-KiUEEzuEU4B-25" value="&lt;font style=&quot;font-size: 20px;&quot;&gt;name: string&lt;/font&gt;" style="text;strokeColor=none;fillColor=none;align=left;verticalAlign=middle;spacingLeft=4;spacingRight=4;overflow=hidden;points=[[0,0.5],[1,0.5]];portConstraint=eastwest;rotatable=0;whiteSpace=wrap;html=1;" vertex="1" parent="vUHx7iwd-KiUEEzuEU4B-23">
          <mxGeometry y="60" width="180" height="30" as="geometry" />
        </mxCell>
        <mxCell id="vUHx7iwd-KiUEEzuEU4B-26" value="&lt;font style=&quot;font-size: 20px;&quot;&gt;url: string&lt;/font&gt;" style="text;strokeColor=none;fillColor=none;align=left;verticalAlign=middle;spacingLeft=4;spacingRight=4;overflow=hidden;points=[[0,0.5],[1,0.5]];portConstraint=eastwest;rotatable=0;whiteSpace=wrap;html=1;" vertex="1" parent="vUHx7iwd-KiUEEzuEU4B-23">
          <mxGeometry y="90" width="180" height="30" as="geometry" />
        </mxCell>
        <mxCell id="vUHx7iwd-KiUEEzuEU4B-27" value="&lt;font style=&quot;font-size: 20px;&quot;&gt;submenu: array&lt;/font&gt;" style="text;strokeColor=none;fillColor=none;align=left;verticalAlign=middle;spacingLeft=4;spacingRight=4;overflow=hidden;points=[[0,0.5],[1,0.5]];portConstraint=eastwest;rotatable=0;whiteSpace=wrap;html=1;" vertex="1" parent="vUHx7iwd-KiUEEzuEU4B-23">
          <mxGeometry y="120" width="180" height="30" as="geometry" />
        </mxCell>
        <mxCell id="vUHx7iwd-KiUEEzuEU4B-34" value="&lt;font style=&quot;font-size: 20px;&quot;&gt;Navigation&lt;/font&gt;" style="swimlane;fontStyle=0;childLayout=stackLayout;horizontal=1;startSize=30;horizontalStack=0;resizeParent=1;resizeParentMax=0;resizeLast=0;collapsible=1;marginBottom=0;whiteSpace=wrap;html=1;" vertex="1" parent="1">
          <mxGeometry x="635" y="640" width="180" height="180" as="geometry" />
        </mxCell>
        <mxCell id="vUHx7iwd-KiUEEzuEU4B-35" value="&lt;font style=&quot;font-size: 20px;&quot;&gt;id: string&lt;/font&gt;" style="text;strokeColor=none;fillColor=none;align=left;verticalAlign=middle;spacingLeft=4;spacingRight=4;overflow=hidden;points=[[0,0.5],[1,0.5]];portConstraint=eastwest;rotatable=0;whiteSpace=wrap;html=1;" vertex="1" parent="vUHx7iwd-KiUEEzuEU4B-34">
          <mxGeometry y="30" width="180" height="30" as="geometry" />
        </mxCell>
        <mxCell id="vUHx7iwd-KiUEEzuEU4B-36" value="&lt;font style=&quot;font-size: 20px;&quot;&gt;name: string&lt;/font&gt;" style="text;strokeColor=none;fillColor=none;align=left;verticalAlign=middle;spacingLeft=4;spacingRight=4;overflow=hidden;points=[[0,0.5],[1,0.5]];portConstraint=eastwest;rotatable=0;whiteSpace=wrap;html=1;" vertex="1" parent="vUHx7iwd-KiUEEzuEU4B-34">
          <mxGeometry y="60" width="180" height="30" as="geometry" />
        </mxCell>
        <mxCell id="vUHx7iwd-KiUEEzuEU4B-37" value="&lt;font style=&quot;font-size: 20px;&quot;&gt;url: string&lt;/font&gt;" style="text;strokeColor=none;fillColor=none;align=left;verticalAlign=middle;spacingLeft=4;spacingRight=4;overflow=hidden;points=[[0,0.5],[1,0.5]];portConstraint=eastwest;rotatable=0;whiteSpace=wrap;html=1;" vertex="1" parent="vUHx7iwd-KiUEEzuEU4B-34">
          <mxGeometry y="90" width="180" height="30" as="geometry" />
        </mxCell>
        <mxCell id="vUHx7iwd-KiUEEzuEU4B-38" value="&lt;font style=&quot;font-size: 20px;&quot;&gt;submenu: array&lt;/font&gt;" style="text;strokeColor=none;fillColor=none;align=left;verticalAlign=middle;spacingLeft=4;spacingRight=4;overflow=hidden;points=[[0,0.5],[1,0.5]];portConstraint=eastwest;rotatable=1;whiteSpace=wrap;html=1;movable=1;resizable=1;deletable=1;editable=1;locked=0;connectable=1;" vertex="1" parent="vUHx7iwd-KiUEEzuEU4B-34">
          <mxGeometry y="120" width="180" height="30" as="geometry" />
        </mxCell>
        <mxCell id="vUHx7iwd-KiUEEzuEU4B-39" value="&lt;font style=&quot;font-size: 20px;&quot;&gt;social: array&lt;/font&gt;" style="text;strokeColor=none;fillColor=none;align=left;verticalAlign=middle;spacingLeft=4;spacingRight=4;overflow=hidden;points=[[0,0.5],[1,0.5]];portConstraint=eastwest;rotatable=1;whiteSpace=wrap;html=1;movable=1;resizable=1;deletable=1;editable=1;locked=0;connectable=1;" vertex="1" parent="vUHx7iwd-KiUEEzuEU4B-34">
          <mxGeometry y="150" width="180" height="30" as="geometry" />
        </mxCell>
        <mxCell id="vUHx7iwd-KiUEEzuEU4B-41" value="&lt;font style=&quot;font-size: 72px;&quot;&gt;Navbar&lt;/font&gt;" style="whiteSpace=wrap;html=1;" vertex="1" parent="1">
          <mxGeometry x="205" y="110" width="440" height="60" as="geometry" />
        </mxCell>
      </root>
    </mxGraphModel>
  </diagram>
</mxfile>
